HIERARCHY
ROOT pelvis
{
	OFFSET 0.003123 -0.351407 0.012037
	CHANNELS 6 Xposition Yposition Zposition Zrotation Yrotation Xrotation 
	JOINT left_hip
	{
		OFFSET 0.058189 -0.092763 -0.026001
		CHANNELS 3 Zrotation Yrotation Xrotation
		JOINT left_knee
		{
			OFFSET 0.054695 -0.378753 -0.009396
			CHANNELS 3 Zrotation Yrotation Xrotation
			JOINT left_ankle
			{
				OFFSET -0.043453 -0.403059 -0.031876
				CHANNELS 3 Zrotation Yrotation Xrotation
				JOINT left_foot
				{
					OFFSET 0.047257 -0.057997 0.118216
					CHANNELS 3 Zrotation Yrotation Xrotation
					End Site
					{
						OFFSET 0.000000 0.000000 0.000000
					}
				}
			}
		}
	}
	JOINT right_hip
	{
		OFFSET -0.063267 -0.103908 -0.021250
		CHANNELS 3 Zrotation Yrotation Xrotation
		JOINT right_knee
		{
			OFFSET -0.044210 -0.362380 -0.016824
			CHANNELS 3 Zrotation Yrotation Xrotation
			JOINT right_ankle
			{
				OFFSET 0.015417 -0.410728 -0.020192
				CHANNELS 3 Zrotation Yrotation Xrotation
				JOINT right_foot
				{
					OFFSET -0.038812 -0.058328 0.119049
					CHANNELS 3 Zrotation Yrotation Xrotation
					End Site
					{
						OFFSET 0.000000 0.000000 0.000000
					}
				}
			}
		}
	}
	JOINT spine_1
	{
		OFFSET -0.002763 0.109891 -0.027618
		CHANNELS 3 Zrotation Yrotation Xrotation
		JOINT spine_2
		{
			OFFSET 0.009448 0.131853 -0.005940
			CHANNELS 3 Zrotation Yrotation Xrotation
			JOINT spine_3
			{
				OFFSET -0.011330 0.052235 0.028447
				CHANNELS 3 Zrotation Yrotation Xrotation
				JOINT neck
				{
					OFFSET -0.012164 0.165167 -0.031615
					CHANNELS 3 Zrotation Yrotation Xrotation
					JOINT head
					{
						OFFSET 0.024783 0.160452 0.020737
						CHANNELS 3 Zrotation Yrotation Xrotation
						End Site
						{
							OFFSET 0.000000 0.000000 0.000000
						}
					}
				}
				JOINT left_collar
				{
					OFFSET 0.046364 0.084944 -0.007220
					CHANNELS 3 Zrotation Yrotation Xrotation
					JOINT left_shoulder
					{
						OFFSET 0.119239 0.057728 -0.015461
						CHANNELS 3 Zrotation Yrotation Xrotation
						JOINT left_elbow
						{
							OFFSET 0.254123 -0.072151 -0.042459
							CHANNELS 3 Zrotation Yrotation Xrotation
							JOINT left_wrist
							{
								OFFSET 0.251987 0.023221 -0.002472
								CHANNELS 3 Zrotation Yrotation Xrotation
								JOINT left_index_1
								{
									OFFSET 0.101902 -0.008688 0.019351
									CHANNELS 3 Zrotation Yrotation Xrotation
									JOINT left_index_2
									{
										OFFSET 0.030149 -0.011154 0.001151
										CHANNELS 3 Zrotation Yrotation Xrotation
										JOINT left_index_3
										{
											OFFSET 0.006504 -0.021577 -0.002433
											CHANNELS 3 Zrotation Yrotation Xrotation
											End Site
											{
												OFFSET 0.000000 0.000000 0.000000
											}
										}
									}
								}
								JOINT left_middle_1
								{
									OFFSET 0.109398 -0.006328 -0.003981
									CHANNELS 3 Zrotation Yrotation Xrotation
									JOINT left_middle_2
									{
										OFFSET 0.026472 -0.015218 -0.004641
										CHANNELS 3 Zrotation Yrotation Xrotation
										JOINT left_middle_3
										{
											OFFSET 0.005022 -0.023347 -0.001911
											CHANNELS 3 Zrotation Yrotation Xrotation
											End Site
											{
												OFFSET 0.000000 0.000000 0.000000
											}
										}
									}
								}
								JOINT left_pinky_1
								{
									OFFSET 0.084047 -0.014539 -0.043750
									CHANNELS 3 Zrotation Yrotation Xrotation
									JOINT left_pinky_2
									{
										OFFSET 0.012124 -0.014448 -0.005375
										CHANNELS 3 Zrotation Yrotation Xrotation
										JOINT left_pinky_3
										{
											OFFSET 0.003798 -0.018853 0.000167
											CHANNELS 3 Zrotation Yrotation Xrotation
											End Site
											{
												OFFSET 0.000000 0.000000 0.000000
											}
										}
									}
								}
								JOINT left_ring_1
								{
									OFFSET 0.097444 -0.009268 -0.027345
									CHANNELS 3 Zrotation Yrotation Xrotation
									JOINT left_ring_2
									{
										OFFSET 0.023561 -0.016057 -0.001895
										CHANNELS 3 Zrotation Yrotation Xrotation
										JOINT left_ring_3
										{
											OFFSET 0.004257 -0.023548 0.000814
											CHANNELS 3 Zrotation Yrotation Xrotation
											End Site
											{
												OFFSET 0.000000 0.000000 0.000000
											}
										}
									}
								}
								JOINT left_thumb_1
								{
									OFFSET 0.040636 -0.017977 0.025611
									CHANNELS 3 Zrotation Yrotation Xrotation
									JOINT left_thumb_2
									{
										OFFSET 0.021637 -0.017639 0.011623
										CHANNELS 3 Zrotation Yrotation Xrotation
										JOINT left_thumb_3
										{
											OFFSET 0.024002 -0.008356 0.006548
											CHANNELS 3 Zrotation Yrotation Xrotation
											End Site
											{
												OFFSET 0.000000 0.000000 0.000000
											}
										}
									}
								}
							}
						}
					}
				}
				JOINT right_collar
				{
					OFFSET -0.047695 0.084339 -0.013400
					CHANNELS 3 Zrotation Yrotation Xrotation
					JOINT right_shoulder
					{
						OFFSET -0.102578 0.053524 -0.012669
						CHANNELS 3 Zrotation Yrotation Xrotation
						JOINT right_elbow
						{
							OFFSET -0.271150 -0.036492 -0.026467
							CHANNELS 3 Zrotation Yrotation Xrotation
							JOINT right_wrist
							{
								OFFSET -0.249267 -0.004533 -0.015325
								CHANNELS 3 Zrotation Yrotation Xrotation
								JOINT right_index_1
								{
									OFFSET -0.099881 -0.011783 0.019600
									CHANNELS 3 Zrotation Yrotation Xrotation
									JOINT right_index_2
									{
										OFFSET -0.030148 -0.011154 0.001151
										CHANNELS 3 Zrotation Yrotation Xrotation
										JOINT right_index_3
										{
											OFFSET -0.006505 -0.021577 -0.002432
											CHANNELS 3 Zrotation Yrotation Xrotation
											End Site
											{
												OFFSET 0.000000 0.000000 0.000000
											}
										}
									}
								}
								JOINT right_middle_1
								{
									OFFSET -0.107376 -0.009422 -0.003734
									CHANNELS 3 Zrotation Yrotation Xrotation
									JOINT right_middle_2
									{
										OFFSET -0.026472 -0.015218 -0.004641
										CHANNELS 3 Zrotation Yrotation Xrotation
										JOINT right_middle_3
										{
											OFFSET -0.005022 -0.023347 -0.001911
											CHANNELS 3 Zrotation Yrotation Xrotation
											End Site
											{
												OFFSET 0.000000 0.000000 0.000000
											}
										}
									}
								}
								JOINT right_pinky_1
								{
									OFFSET -0.082027 -0.017634 -0.043503
									CHANNELS 3 Zrotation Yrotation Xrotation
									JOINT right_pinky_2
									{
										OFFSET -0.012123 -0.014448 -0.005374
										CHANNELS 3 Zrotation Yrotation Xrotation
										JOINT right_pinky_3
										{
											OFFSET -0.003798 -0.018852 0.000167
											CHANNELS 3 Zrotation Yrotation Xrotation
											End Site
											{
												OFFSET 0.000000 0.000000 0.000000
											}
										}
									}
								}
								JOINT right_ring_1
								{
									OFFSET -0.095423 -0.012362 -0.027099
									CHANNELS 3 Zrotation Yrotation Xrotation
									JOINT right_ring_2
									{
										OFFSET -0.023561 -0.016057 -0.001895
										CHANNELS 3 Zrotation Yrotation Xrotation
										JOINT right_ring_3
										{
											OFFSET -0.004257 -0.023548 0.000816
											CHANNELS 3 Zrotation Yrotation Xrotation
											End Site
											{
												OFFSET 0.000000 0.000000 0.000000
											}
										}
									}
								}
								JOINT right_thumb_1
								{
									OFFSET -0.038613 -0.021074 0.025861
									CHANNELS 3 Zrotation Yrotation Xrotation
									JOINT right_thumb_2
									{
										OFFSET -0.021636 -0.017639 0.011623
										CHANNELS 3 Zrotation Yrotation Xrotation
										JOINT right_thumb_3
										{
											OFFSET -0.024004 -0.008353 0.006547
											CHANNELS 3 Zrotation Yrotation Xrotation
											End Site
											{
												OFFSET 0.000000 0.000000 0.000000
											}
										}
									}
								}
							}
						}
					}
				}
			}
		}
	}
}
MOTION
Frames: 5
Frame Time: 0.050000
0.003325 0.567184 0.015106 -5.610485 -2.311832 -27.785860 29.560655 7.076500 -55.311838 -25.757865 17.029519 99.414502 6.660474 11.837517 -2.239783 0.000000 0.000000 0.000000 -32.971889 -8.148103 -52.974321 47.545769 -35.959239 77.449607 -14.672248 -27.475206 7.177960 0.000000 0.000000 0.000000 -0.832795 -2.598952 40.903679 -9.856120 -0.857313 -20.731186 8.922581 2.857762 26.880874 5.423656 0.479667 -7.477379 0.000000 0.000000 0.000000 -1.448004 -3.530568 1.569323 -58.554987 -40.420294 -1.045736 -55.681935 -26.717250 17.443049 15.511675 -7.190988 43.362841 -13.574488 9.352818 1.483129 20.458305 -2.007122 10.305158 0.000000 0.000000 0.000000 -8.410852 2.714606 -1.249951 2.225916 1.407747 14.485437 0.000000 0.000000 0.000000 44.082286 -9.991257 -4.315292 -25.432393 14.062161 4.217659 0.000000 0.000000 0.000000 6.712912 0.876793 -0.850202 -9.942254 6.602610 11.075346 0.000000 0.000000 0.000000 -1.340000 15.121939 12.612046 -3.842982 -7.582042 -0.969453 0.000000 0.000000 0.000000 -26.548469 8.961867 3.588083 -43.183355 36.364469 -16.114397 -62.711686 -11.148217 10.428867 -16.790074 -13.567055 -44.863623 -10.934620 -2.751739 1.762946 -17.421878 4.407483 -23.565153 0.000000 0.000000 0.000000 2.842412 13.586783 -6.346164 -20.480260 0.201459 -15.032474 0.000000 0.000000 0.000000 -7.719790 18.371135 -24.919990 -22.380914 -0.158724 3.335482 0.000000 0.000000 0.000000 4.677649 15.142072 -8.309593 -27.156120 -1.466473 -12.960845 0.000000 0.000000 0.000000 -37.420585 -10.016758 -7.859753 23.510638 3.999491 5.829282 0.000000 0.000000 0.000000 
0.002971 0.564606 0.015106 -5.678562 -2.196148 -27.656841 29.648546 7.139734 -55.870647 -25.879412 17.206919 99.710596 6.672538 11.888151 -2.205718 0.000000 0.000000 0.000000 -32.967210 -8.304029 -53.498915 47.724257 -36.206266 77.572178 -15.006533 -27.970153 7.674975 0.000000 0.000000 0.000000 -0.584123 -2.654255 40.585319 -10.036356 -0.820423 -20.857952 8.930854 3.095318 26.960031 5.629465 0.390366 -7.130834 0.000000 0.000000 0.000000 -0.417524 -4.142207 1.941411 -59.020457 -40.660221 -0.978402 -55.821957 -26.809371 17.546135 15.965295 -7.567888 42.461282 -13.785712 9.128685 1.390979 20.769189 -2.056434 10.514046 0.000000 0.000000 0.000000 -9.132116 3.660248 -1.148832 2.098054 0.964093 12.972231 0.000000 0.000000 0.000000 44.327070 -9.404837 -3.621642 -25.775014 13.937523 4.282772 0.000000 0.000000 0.000000 6.068332 1.127004 -0.783007 -9.168861 6.089911 11.574369 0.000000 0.000000 0.000000 -1.050426 15.532099 13.030125 -3.989004 -7.766870 -0.955734 0.000000 0.000000 0.000000 -26.597380 8.786156 3.495121 -41.634401 35.929130 -15.308880 -62.056058 -10.511757 10.044852 -17.271534 -13.367240 -44.856016 -10.713213 -2.130232 1.519014 -17.429430 3.985238 -22.464629 0.000000 0.000000 0.000000 3.129544 13.590283 -6.291126 -21.137505 0.132273 -15.131124 0.000000 0.000000 0.000000 -7.984928 18.503036 -25.091624 -21.921022 -0.281218 3.915488 0.000000 0.000000 0.000000 4.780326 15.232207 -8.282438 -27.629217 -1.532751 -12.952562 0.000000 0.000000 0.000000 -36.792336 -9.533216 -8.154559 23.042302 3.790195 5.705044 0.000000 0.000000 0.000000 
0.002500 0.564606 0.016426 -5.905059 -1.983189 -27.680921 29.729514 7.091894 -55.980712 -25.811640 17.067872 99.914506 6.585368 11.695306 -2.256587 0.000000 0.000000 0.000000 -32.992681 -8.375022 -53.278898 48.072093 -36.397996 77.188993 -15.386357 -28.510196 8.341510 0.000000 0.000000 0.000000 -0.232242 -2.766248 40.218259 -9.967394 -0.954782 -21.263345 8.708904 2.625939 27.891422 5.311080 0.490425 -7.513319 0.000000 0.000000 0.000000 -0.595068 -3.902247 1.814832 -58.772201 -40.520305 -1.032441 -55.754019 -26.950240 17.671638 15.926539 -7.573780 42.553359 -13.924911 9.407117 1.443965 21.865206 -1.892764 12.152454 0.000000 0.000000 0.000000 -9.617235 2.964922 -1.516136 4.148421 0.976997 17.050554 0.000000 0.000000 0.000000 44.696854 -9.597645 -3.814963 -27.138262 14.513978 3.798320 0.000000 0.000000 0.000000 5.733996 1.546219 -0.691453 -6.857158 5.439361 14.699509 0.000000 0.000000 0.000000 -0.890711 16.737661 14.013248 -4.405482 -8.697922 -1.080772 0.000000 0.000000 0.000000 -26.245094 9.328130 3.632900 -41.324086 35.691305 -15.101606 -62.213400 -10.280936 9.808126 -16.887182 -13.370852 -44.621137 -10.536998 -2.216275 1.493231 -16.546931 5.236064 -24.169764 0.000000 0.000000 0.000000 2.677367 12.622792 -5.976789 -19.201724 1.133805 -18.132761 0.000000 0.000000 0.000000 -7.974255 18.922703 -25.647494 -21.861760 -0.315068 4.043327 0.000000 0.000000 0.000000 5.022013 16.051801 -8.666415 -28.782263 -2.023025 -9.749985 0.000000 0.000000 0.000000 -36.627329 -9.402827 -8.272962 23.500304 5.063907 5.563518 0.000000 0.000000 0.000000 
0.001970 0.564606 0.016426 -5.655937 -1.745456 -27.616423 29.821992 7.031978 -55.856707 -26.397163 17.665209 99.248243 6.854678 12.271227 -2.159545 0.000000 0.000000 0.000000 -33.037026 -8.516876 -53.527307 47.827615 -36.286867 77.277726 -15.885584 -29.192747 9.268990 0.000000 0.000000 0.000000 -0.683305 -2.652075 40.208931 -9.836048 -0.957303 -21.148644 8.591053 2.501740 27.610639 5.389668 0.536573 -7.800778 0.000000 0.000000 0.000000 -1.129815 -3.533730 1.598089 -58.323510 -40.133436 -1.216065 -55.590559 -26.858302 17.549988 15.180370 -7.292554 43.525694 -12.493284 8.957298 1.602773 20.529822 -2.159758 9.887935 0.000000 0.000000 0.000000 -8.749169 3.536824 -1.094387 2.790525 1.069018 14.131534 0.000000 0.000000 0.000000 44.177604 -9.264527 -3.559619 -28.253166 13.212004 -0.700202 0.000000 0.000000 0.000000 7.136744 1.708047 -0.535176 -8.853029 6.185563 10.883613 0.000000 0.000000 0.000000 0.321975 15.266791 12.950046 -4.804013 -7.913670 -0.631823 0.000000 0.000000 0.000000 -25.457659 9.221919 3.649969 -41.343402 36.766058 -15.795581 -62.518687 -9.720938 9.468021 -17.087229 -12.978135 -44.560177 -10.405957 -2.027335 1.419609 -16.864139 3.493494 -20.816487 0.000000 0.000000 0.000000 3.301110 12.530739 -5.887304 -20.801933 0.138112 -14.859773 0.000000 0.000000 0.000000 -7.628257 18.527800 -25.086204 -21.674950 -0.300098 3.885969 0.000000 0.000000 0.000000 5.403417 15.845571 -8.458932 -28.370939 -1.996742 -9.580374 0.000000 0.000000 0.000000 -36.086325 -10.181686 -7.641817 22.968061 4.583992 5.439487 0.000000 0.000000 0.000000 
0.001793 0.562027 0.016426 -5.773468 -1.229459 -27.687122 29.585857 6.743347 -56.460047 -26.511319 17.757855 99.591766 6.984838 12.568098 -2.099907 0.000000 0.000000 0.000000 -33.411931 -8.950523 -53.494736 48.335214 -36.649858 77.051937 -16.431329 -29.919986 9.972436 0.000000 0.000000 0.000000 -0.446300 -2.752621 40.190906 -9.930890 -0.959876 -21.365570 8.790477 2.807093 27.716853 5.262610 0.534080 -7.635501 0.000000 0.000000 0.000000 -0.282841 -4.230047 1.993959 -58.729668 -40.756759 -1.148533 -55.649514 -26.824087 17.507605 15.393235 -7.379127 43.445620 -13.242954 9.236682 1.516243 20.240771 -2.100101 9.846174 0.000000 0.000000 0.000000 -8.954946 3.840599 -1.060870 3.860661 0.188623 12.518892 0.000000 0.000000 0.000000 43.174588 -8.786561 -3.119151 -24.210930 12.606812 2.980344 0.000000 0.000000 0.000000 5.832308 1.509264 -0.686589 -8.507346 5.823103 10.680311 0.000000 0.000000 0.000000 -0.483454 14.705923 12.346016 -4.435480 -6.586945 -0.410992 0.000000 0.000000 0.000000 -25.688146 8.639015 3.397617 -39.629502 36.941518 -15.245076 -62.300824 -8.813323 9.121091 -17.127456 -12.960198 -43.801737 -10.648619 -1.162554 1.190463 -16.746904 3.868858 -22.168760 0.000000 0.000000 0.000000 2.959386 14.315688 -6.602147 -20.728761 -0.069232 -13.806043 0.000000 0.000000 0.000000 -8.919472 17.722367 -24.457986 -21.439479 -0.304191 3.733820 0.000000 0.000000 0.000000 4.326798 14.838115 -8.271329 -26.524066 -1.524532 -12.210713 0.000000 0.000000 0.000000 -36.097934 -9.345974 -8.405510 22.936056 4.313969 5.495074 0.000000 0.000000 0.000000 
